<svg version="1.1" viewBox="0.0 0.0 156.6745406824147 121.96062992125984" fill="none" stroke="none" stroke-linecap="square" stroke-miterlimit="10" xmlns:xlink="http://www.w3.org/1999/xlink" xmlns="http://www.w3.org/2000/svg"><clipPath id="p.0"><path d="m0 0l156.67455 0l0 121.96063l-156.67455 0l0 -121.96063z" clip-rule="nonzero"/></clipPath><g clip-path="url(#p.0)"><path fill="#000000" fill-opacity="0.0" d="m0 0l156.67455 0l0 121.96063l-156.67455 0z" fill-rule="evenodd"/><path fill="#ffffff" d="m18.103884 51.202316l0 0c-7.7406836 -4.287819 -10.455177 -14.201012 -6.062992 -22.141733l0 0c2.1092024 -3.8132706 5.608671 -6.6523914 9.728565 -7.89279c4.119894 -1.2403984 8.522732 -0.7804661 12.239939 1.278616l0 0c7.7406845 4.287817 10.455177 14.20101 6.062992 22.141733l0 0c-4.392185 7.9407234 -14.227819 10.901989 -21.968504 6.614174z" fill-rule="evenodd"/><path stroke="#999999" stroke-width="4.0" stroke-linejoin="round" stroke-linecap="butt" d="m18.103884 51.202316l0 0c-7.7406836 -4.287819 -10.455177 -14.201012 -6.062992 -22.141733l0 0c2.1092024 -3.8132706 5.608671 -6.6523914 9.728565 -7.89279c4.119894 -1.2403984 8.522732 -0.7804661 12.239939 1.278616l0 0c7.7406845 4.287817 10.455177 14.20101 6.062992 22.141733l0 0c-4.392185 7.9407234 -14.227819 10.901989 -21.968504 6.614174z" fill-rule="evenodd"/><path fill="#a64d79" d="m15.963676 41.24191l0 0c-2.4091797 -5.4967575 0.15725136 -11.933985 5.7322826 -14.3779545l0 0c2.677225 -1.1736355 5.7043858 -1.2506104 8.415543 -0.21399117c2.7111568 1.0366173 4.884222 3.1019154 6.041151 5.7415504l0 0c2.4091797 5.4967537 -0.15725327 11.933983 -5.7322826 14.377953l0 0c-5.575033 2.4439697 -12.047514 -0.03080368 -14.456694 -5.5275574z" fill-rule="evenodd"/><path stroke="#000000" stroke-width="1.0" stroke-linejoin="round" stroke-linecap="butt" d="m15.963676 41.24191l0 0c-2.4091797 -5.4967575 0.15725136 -11.933985 5.7322826 -14.3779545l0 0c2.677225 -1.1736355 5.7043858 -1.2506104 8.415543 -0.21399117c2.7111568 1.0366173 4.884222 3.1019154 6.041151 5.7415504l0 0c2.4091797 5.4967537 -0.15725327 11.933983 -5.7322826 14.377953l0 0c-5.575033 2.4439697 -12.047514 -0.03080368 -14.456694 -5.5275574z" fill-rule="evenodd"/><path fill="#ffffff" d="m72.98688 20.709974l0 0c0 -8.845254 7.353813 -16.015749 16.425194 -16.015749l0 0c4.3562317 0 8.53405 1.6873684 11.614372 4.690904c3.0803223 3.0035353 4.810829 7.0772038 4.810829 11.324844l0 0c0 8.845253 -7.353813 16.015749 -16.425201 16.015749l0 0c-9.071381 0 -16.425194 -7.170496 -16.425194 -16.015749z" fill-rule="evenodd"/><path stroke="#999999" stroke-width="4.0" stroke-linejoin="round" stroke-linecap="butt" d="m72.98688 20.709974l0 0c0 -8.845254 7.353813 -16.015749 16.425194 -16.015749l0 0c4.3562317 0 8.53405 1.6873684 11.614372 4.690904c3.0803223 3.0035353 4.810829 7.0772038 4.810829 11.324844l0 0c0 8.845253 -7.353813 16.015749 -16.425201 16.015749l0 0c-9.071381 0 -16.425194 -7.170496 -16.425194 -16.015749z" fill-rule="evenodd"/><path fill="#f1c232" d="m78.38845 20.709974l0 0c0 -6.0012045 4.9354477 -10.866142 11.023621 -10.866142l0 0c2.923645 0 5.7275467 1.1448221 7.7948837 3.182619c2.0673294 2.037797 3.2287369 4.8016434 3.2287369 7.683523l0 0c0 6.0012035 -4.93544 10.86614 -11.023621 10.86614l0 0c-6.088173 0 -11.023621 -4.864937 -11.023621 -10.86614z" fill-rule="evenodd"/><path stroke="#000000" stroke-width="1.0" stroke-linejoin="round" stroke-linecap="butt" d="m78.38845 20.709974l0 0c0 -6.0012045 4.9354477 -10.866142 11.023621 -10.866142l0 0c2.923645 0 5.7275467 1.1448221 7.7948837 3.182619c2.0673294 2.037797 3.2287369 4.8016434 3.2287369 7.683523l0 0c0 6.0012035 -4.93544 10.86614 -11.023621 10.86614l0 0c-6.088173 0 -11.023621 -4.864937 -11.023621 -10.86614z" fill-rule="evenodd"/><path fill="#ffffff" d="m122.42934 90.90804l0 0c-3.7224884 -8.027702 -0.070259094 -17.630661 8.157471 -21.448822l0 0c3.9511108 -1.8335419 8.4505005 -2.060585 12.508377 -0.6311722c4.0578766 1.4294128 7.3418274 4.3981857 9.129425 8.25322l0 0c3.7224884 8.027695 0.070251465 17.630661 -8.157486 21.448822l0 0c-8.227737 3.8181534 -17.915306 0.40564728 -21.637787 -7.6220474z" fill-rule="evenodd"/><path stroke="#999999" stroke-width="4.0" stroke-linejoin="round" stroke-linecap="butt" d="m122.42934 90.90804l0 0c-3.7224884 -8.027702 -0.070259094 -17.630661 8.157471 -21.448822l0 0c3.9511108 -1.8335419 8.4505005 -2.060585 12.508377 -0.6311722c4.0578766 1.4294128 7.3418274 4.3981857 9.129425 8.25322l0 0c3.7224884 8.027695 0.070251465 17.630661 -8.157486 21.448822l0 0c-8.227737 3.8181534 -17.915306 0.40564728 -21.637787 -7.6220474z" fill-rule="evenodd"/><path fill="#3d85c6" d="m128.80803 76.99766l0 0c3.8094635 -4.6357117 10.704987 -5.256172 15.401581 -1.3858261l0 0c2.2553864 1.8586044 3.691681 4.5254135 3.99292 7.4137726c0.301239 2.8883514 -0.557251 5.76165 -2.3866272 7.9878006l0 0c-3.8094635 4.6357117 -10.704971 5.256172 -15.401566 1.3858261l0 0c-4.696602 -3.8703384 -5.415764 -10.7658615 -1.606308 -15.401573z" fill-rule="evenodd"/><path stroke="#000000" stroke-width="1.0" stroke-linejoin="round" stroke-linecap="butt" d="m128.80803 76.99766l0 0c3.8094635 -4.6357117 10.704987 -5.256172 15.401581 -1.3858261l0 0c2.2553864 1.8586044 3.691681 4.5254135 3.99292 7.4137726c0.301239 2.8883514 -0.557251 5.76165 -2.3866272 7.9878006l0 0c-3.8094635 4.6357117 -10.704971 5.256172 -15.401566 1.3858261l0 0c-4.696602 -3.8703384 -5.415764 -10.7658615 -1.606308 -15.401573z" fill-rule="evenodd"/><path fill="#ffffff" d="m68.37795 67.66273l0 0c0 -8.845253 7.353813 -16.015747 16.425194 -16.015747l0 0c4.3562393 0 8.53405 1.6873703 11.614372 4.6909065c3.0803223 3.0035324 4.810829 7.077202 4.810829 11.324841l0 0c0 8.845253 -7.353813 16.015747 -16.425201 16.015747l0 0c-9.071381 0 -16.425194 -7.170494 -16.425194 -16.015747z" fill-rule="evenodd"/><path stroke="#999999" stroke-width="4.0" stroke-linejoin="round" stroke-linecap="butt" d="m68.37795 67.66273l0 0c0 -8.845253 7.353813 -16.015747 16.425194 -16.015747l0 0c4.3562393 0 8.53405 1.6873703 11.614372 4.6909065c3.0803223 3.0035324 4.810829 7.077202 4.810829 11.324841l0 0c0 8.845253 -7.353813 16.015747 -16.425201 16.015747l0 0c-9.071381 0 -16.425194 -7.170494 -16.425194 -16.015747z" fill-rule="evenodd"/><path fill="#6aa84f" d="m73.779526 67.66273l0 0c0 -6.0012016 4.9354477 -10.866138 11.023621 -10.866138l0 0c2.9236526 0 5.7275543 1.1448212 7.7948837 3.1826172c2.0673294 2.0377998 3.2287445 4.801647 3.2287445 7.6835213l0 0c0 6.0012054 -4.9354477 10.866142 -11.023628 10.866142l0 0c-6.088173 0 -11.023621 -4.864937 -11.023621 -10.866142z" fill-rule="evenodd"/><path stroke="#000000" stroke-width="1.0" stroke-linejoin="round" stroke-linecap="butt" d="m73.779526 67.66273l0 0c0 -6.0012016 4.9354477 -10.866138 11.023621 -10.866138l0 0c2.9236526 0 5.7275543 1.1448212 7.7948837 3.1826172c2.0673294 2.0377998 3.2287445 4.801647 3.2287445 7.6835213l0 0c0 6.0012054 -4.9354477 10.866142 -11.023628 10.866142l0 0c-6.088173 0 -11.023621 -4.864937 -11.023621 -10.866142z" fill-rule="evenodd"/><path fill="#ffffff" d="m19.183727 102.78609l0 0c0 -8.845253 7.3538113 -16.015747 16.425198 -16.015747l0 0c4.3562317 0 8.534046 1.6873703 11.614368 4.6909027c3.0803223 3.00354 4.810829 7.0772095 4.810829 11.324844l0 0c0 8.845253 -7.353813 16.015747 -16.425198 16.015747l0 0c-9.071386 0 -16.425198 -7.170494 -16.425198 -16.015747z" fill-rule="evenodd"/><path stroke="#999999" stroke-width="4.0" stroke-linejoin="round" stroke-linecap="butt" d="m19.183727 102.78609l0 0c0 -8.845253 7.3538113 -16.015747 16.425198 -16.015747l0 0c4.3562317 0 8.534046 1.6873703 11.614368 4.6909027c3.0803223 3.00354 4.810829 7.0772095 4.810829 11.324844l0 0c0 8.845253 -7.353813 16.015747 -16.425198 16.015747l0 0c-9.071386 0 -16.425198 -7.170494 -16.425198 -16.015747z" fill-rule="evenodd"/><path fill="#e69138" d="m24.585302 102.78609l0 0c0 -6.0012054 4.935444 -10.866142 11.0236225 -10.866142l0 0c2.923645 0 5.7275467 1.1448288 7.794876 3.1826248c2.0673294 2.037796 3.2287445 4.8016434 3.2287445 7.6835175l0 0c0 6.0012054 -4.935444 10.866142 -11.023621 10.866142l0 0c-6.0881786 0 -11.0236225 -4.864937 -11.0236225 -10.866142z" fill-rule="evenodd"/><path stroke="#000000" stroke-width="1.0" stroke-linejoin="round" stroke-linecap="butt" d="m24.585302 102.78609l0 0c0 -6.0012054 4.935444 -10.866142 11.0236225 -10.866142l0 0c2.923645 0 5.7275467 1.1448288 7.794876 3.1826248c2.0673294 2.037796 3.2287445 4.8016434 3.2287445 7.6835175l0 0c0 6.0012054 -4.935444 10.866142 -11.023621 10.866142l0 0c-6.0881786 0 -11.0236225 -4.864937 -11.0236225 -10.866142z" fill-rule="evenodd"/><path fill="#000000" fill-opacity="0.0" d="m21.769457 21.167793c2.309431 0 1.6347466 -3.433588 4.618864 -6.8503017c2.9841175 -3.4167147 9.627037 -6.816556 15.596027 -6.8503017c5.968994 -0.033745766 11.264061 3.298604 15.596031 6.6140814c4.3319664 3.3154764 7.70084 6.6140814 15.401676 6.6140814" fill-rule="evenodd"/><path stroke="#666666" stroke-width="2.0" stroke-linejoin="round" stroke-linecap="butt" d="m21.769457 21.167793c2.309431 0 1.6347485 -3.433588 4.618864 -6.8503017c2.9841156 -3.4167156 9.627033 -6.816556 15.596027 -6.8503017c5.9689903 -0.033745766 11.264061 3.298604 15.596031 6.6140814c1.0829926 0.8288698 2.1057892 1.6566849 3.1511307 2.432168c0.26133347 0.19387054 0.52407837 0.38447 0.7895241 0.57099724c0.13272476 0.09326553 0.2661209 0.18551064 0.40035248 0.27663994l0.25757217 0.17150497" fill-rule="evenodd"/><path fill="#666666" stroke="#666666" stroke-width="2.0" stroke-linecap="butt" d="m62.17896 17.532581l3.6291466 4.5328617l5.5007324 -1.8599491l-3.6291428 -4.5328617z" fill-rule="evenodd"/><path fill="#000000" fill-opacity="0.0" d="m102.42851 21.158758c0 12.031496 9.314964 18.047243 18.629921 24.06299c9.314964 6.015751 18.629921 12.031498 18.629921 24.062996" fill-rule="evenodd"/><path stroke="#666666" stroke-width="2.0" stroke-linejoin="round" stroke-linecap="butt" d="m102.42852 21.158758c0 12.031496 9.314957 18.047243 18.629921 24.06299c4.6574783 3.0078735 9.314957 6.015747 12.808075 9.775593c0.87327576 0.9399605 1.6737823 1.926918 2.383316 2.972622c0.08868408 0.13071823 0.17596436 0.26234436 0.2617798 0.39491653l0.0644989 0.102108" fill-rule="evenodd"/><path fill="#666666" stroke="#666666" stroke-width="2.0" stroke-linecap="butt" d="m136.57611 58.466984l-1.8856354 5.4919853l4.515854 3.6502838l1.8856354 -5.4919815z" fill-rule="evenodd"/><path fill="#000000" fill-opacity="0.0" d="m131.55876 99.16126c0 9.041428 -8.787399 20.606483 -17.574799 18.082863c-8.787407 -2.5236282 -17.574806 -19.135925 -17.574806 -38.271843" fill-rule="evenodd"/><path stroke="#666666" stroke-width="2.0" stroke-linejoin="round" stroke-linecap="butt" d="m131.55876 99.16126c0 9.041435 -8.787407 20.606483 -17.574806 18.082863c-4.3936996 -1.2618103 -8.787399 -6.0457916 -12.08268 -12.906311c-1.6476364 -3.430252 -3.020668 -7.3796463 -3.9817886 -11.66748c-0.120140076 -0.5359726 -0.23384094 -1.07724 -0.34085083 -1.623436c-0.053497314 -0.2731018 -0.10531616 -0.5474396 -0.15542603 -0.8229599l-0.0070495605 -0.040245056" fill-rule="evenodd"/><path fill="#666666" stroke="#666666" stroke-width="2.0" stroke-linecap="butt" d="m97.41617 90.1837l2.891693 -5.0354385l-3.7427368 -4.439522l-2.8917007 5.035431z" fill-rule="evenodd"/><path fill="#000000" fill-opacity="0.0" d="m84.80315 83.678474c0 9.559059 -16.377953 19.11811 -32.7559 19.11811" fill-rule="evenodd"/><path stroke="#666666" stroke-width="2.0" stroke-linejoin="round" stroke-linecap="butt" d="m84.80315 83.678474c0 4.7795334 -4.0944824 9.559059 -10.236214 13.143707c-3.0708694 1.7923203 -6.653549 3.2859192 -10.492126 4.331444c-0.23991394 0.06535339 -0.48082733 0.12893677 -0.7226753 0.19075012l-0.13801575 0.034111023" fill-rule="evenodd"/><path fill="#666666" stroke="#666666" stroke-width="2.0" stroke-linecap="butt" d="m63.214115 101.37849l-5.1382446 -2.7048035l-4.2990685 3.903267l5.138241 2.704811z" fill-rule="evenodd"/><path fill="#000000" fill-opacity="0.0" d="m23.994556 91.46124c0 -10.798897 8.87484 -17.033531 17.87016 -21.597794c8.995319 -4.5642624 18.111115 -7.458149 17.87016 -12.634171c-0.24095535 -5.1760216 -9.838665 -12.634174 -19.677326 -12.634174" fill-rule="evenodd"/><path stroke="#666666" stroke-width="2.0" stroke-linejoin="round" stroke-linecap="butt" d="m23.994556 91.46124c0 -10.798889 8.87484 -17.033531 17.87016 -21.597794c8.995316 -4.5642548 18.111115 -7.458149 17.870155 -12.634171c-0.120471954 -2.5880089 -2.5801392 -5.7465553 -6.239521 -8.258095c-0.45742035 -0.31394577 -0.93358994 -0.61777496 -1.4262772 -0.9091263c-0.2463417 -0.14566803 -0.49681854 -0.28821945 -0.7511444 -0.4273529l-0.36849976 -0.19760513" fill-rule="evenodd"/><path fill="#666666" stroke="#666666" stroke-width="2.0" stroke-linecap="butt" d="m50.94943 47.437103l-3.76157 -4.423588l-5.443344 2.0217628l3.76157 4.423588z" fill-rule="evenodd"/></g></svg>